<?xml version="1.0" encoding="iso-8859-1"?>
<!-- Uploaded to: SVG Repo, www.svgrepo.com, Generator: SVG Repo Mixer Tools -->
<svg version="1.1" id="Layer_1" xmlns="http://www.w3.org/2000/svg" xmlns:xlink="http://www.w3.org/1999/xlink" 
	 viewBox="0 0 512 512" xml:space="preserve">
<g>
	<rect x="371.398" y="384.061" style="fill:#36A9E1;" width="48.023" height="104.052"/>
	<rect x="91.262" y="384.061" style="fill:#36A9E1;" width="48.023" height="104.052"/>
</g>
<g>
	<rect x="99.271" y="384.061" style="fill:#A5C6E3;" width="48.023" height="32.015"/>
	<rect x="371.398" y="384.061" style="fill:#A5C6E3;" width="48.023" height="32.015"/>
</g>
<rect x="139.29" y="352.05" style="fill:#36A9E1;" width="232.066" height="152.069"/>
<g>
	<polygon style="fill:#A5C6E3;" points="339.383,416.076 315.373,432.083 291.361,416.076 291.361,352.046 339.383,352.046 	"/>
	<polygon style="fill:#A5C6E3;" points="227.33,416.076 203.319,432.083 179.307,416.076 179.307,352.046 227.33,352.046 	"/>
</g>
<g>
	<rect x="147.287" y="472.108" style="fill:#1D71B8;" width="223.091" height="32.015"/>
	<rect x="171.301" y="7.882" style="fill:#1D71B8;" width="40.019" height="104.052"/>
	<rect x="307.365" y="7.882" style="fill:#1D71B8;" width="40.019" height="104.052"/>
</g>
<path style="fill:#36A9E1;" d="M379.402,352.046H139.289V116.252c0-2.387,1.935-4.321,4.321-4.321h214.982
	c11.494,0,20.81,9.318,20.81,20.81V352.046z"/>
<rect x="171.301" y="191.973" style="fill:#A5C6E3;" width="176.083" height="80.039"/>
<g>
	<rect x="139.29" y="320.028" style="fill:#1D71B8;" width="240.116" height="32.015"/>
	<rect x="171.301" y="191.973" style="fill:#1D71B8;" width="176.083" height="32.015"/>
</g>
<rect x="208.094" y="223.984" style="fill:#FFFFFF;" width="15.764" height="24.012"/>
<g>
	<polygon style="fill:#1D1D1B;" points="375.935,512 136.065,512 136.065,368.053 151.828,368.053 151.828,496.236 360.172,496.236 
		360.172,368.053 375.935,368.053 	"/>
	<polygon style="fill:#1D1D1B;" points="215.859,95.923 200.095,95.923 200.095,15.764 175.839,15.764 175.839,95.923 
		160.075,95.923 160.075,0 215.859,0 	"/>
	<polygon style="fill:#1D1D1B;" points="351.923,95.923 336.159,95.923 336.159,15.764 311.905,15.764 311.905,95.923 
		296.141,95.923 296.141,0 351.923,0 	"/>
	<polygon style="fill:#1D1D1B;" points="279.889,79.916 264.125,79.916 264.125,71.791 247.874,71.791 247.874,79.916 
		232.11,79.916 232.11,56.027 279.889,56.027 	"/>
	<path style="fill:#1D1D1B;" d="M168.08,184.087v95.802h183.844v-95.803L168.08,184.087L168.08,184.087z M183.844,264.125v-32.259
		h8.126v-15.764h-8.126v-16.252H336.16v16.252h-8.125v15.764h8.125v32.259H183.844z"/>
	<polygon style="fill:#1D1D1B;" points="384.06,376.179 384.06,391.943 408.194,391.943 408.194,408.194 392.065,408.194 
		392.065,423.958 408.194,423.958 408.194,480.228 384.06,480.228 384.06,495.992 423.958,495.992 423.958,376.179 	"/>
	<polygon style="fill:#1D1D1B;" points="127.938,391.943 127.938,376.179 88.042,376.179 88.042,495.992 127.938,495.992 
		127.938,480.228 103.806,480.228 103.806,423.958 119.935,423.958 119.935,408.194 103.806,408.194 103.806,391.943 	"/>
	<rect x="175.967" y="312.146" style="fill:#1D1D1B;" width="160.077" height="15.764"/>
	<rect x="159.951" y="464.226" style="fill:#1D1D1B;" width="192.088" height="15.764"/>
</g>
<rect x="192.088" y="384.061" style="fill:#FFFFFF;" width="15.764" height="16.008"/>
<path style="fill:#1D1D1B;" d="M383.938,139.671c0-19.642-15.979-35.622-35.622-35.622h-68.427v-16.13h-15.764v16.13h-16.252v-16.13
	H232.11v16.13h-68.428c-19.643,0-35.622,15.98-35.622,35.622v220.256h40.019v60.367l31.894,21.261l31.894-21.261v-60.367h48.267
	v60.367l31.894,21.261l31.895-21.261v-60.367h40.018V139.671H383.938z M216.102,411.857l-16.13,10.753l-16.13-10.753v-51.93h32.258
	v51.93H216.102z M328.156,411.857l-16.131,10.753l-16.13-10.753v-51.93h32.259v51.93H328.156z M143.825,344.164v-16.252h16.13
	v-15.764h-16.13V139.671c0-10.95,8.909-19.858,19.858-19.858h184.634c10.95,0,19.858,8.909,19.858,19.858v172.477h-16.13v15.764
	h16.13v16.252H143.825z"/>
<rect x="304.138" y="384.061" style="fill:#FFFFFF;" width="15.764" height="16.008"/>
<rect x="199.97" y="216.102" style="fill:#1D1D1B;" width="120.058" height="15.764"/>
</svg>