<?xml version="1.0" encoding="iso-8859-1"?>
<!-- Uploaded to: SVG Repo, www.svgrepo.com, Generator: SVG Repo Mixer Tools -->
<svg version="1.1" id="Layer_1" xmlns="http://www.w3.org/2000/svg" xmlns:xlink="http://www.w3.org/1999/xlink" 
	 viewBox="0 0 512.001 512.001" xml:space="preserve">
<path style="fill:#063D6B;" d="M406.714,512h-302.76v-4.519c0-32.861,26.64-59.501,59.501-59.501h183.84
	c33.346,0,60.183,27.401,59.488,60.74L406.714,512z"/>
<polygon style="fill:#A5C6E3;" points="191.982,447.981 191.982,423.973 199.983,415.97 312.019,415.97 320.02,423.973 
	320.02,447.981 264.004,471.988 "/>
<path style="fill:#1D71B8;" d="M263.336,512H103.954v-4.519c0-32.861,26.64-59.501,59.501-59.501h40.428
	c33.116,0,59.861,27.038,59.497,60.153L263.336,512z"/>
<g>
	<circle style="fill:#A5C6E3;" cx="384.038" cy="215.908" r="24.007"/>
	<circle style="fill:#A5C6E3;" cx="127.964" cy="215.908" r="24.007"/>
	<path style="fill:#A5C6E3;" d="M331.312,415.97H180.752c-20.316,0-36.786-16.47-36.786-36.786V127.881h224.069v251.365
		C368.035,399.528,351.594,415.97,331.312,415.97z"/>
</g>
<g>
	<rect x="143.968" y="199.905" style="fill:#FFFFFF;" width="88.028" height="40.008"/>
	<rect x="280.006" y="199.905" style="fill:#FFFFFF;" width="88.028" height="40.008"/>
</g>
<path style="fill:#36A9E1;" d="M329.458,415.97H194.367c-27.835,0-50.4-22.565-50.4-50.4v-29.625h224.069v41.447
	C368.035,398.699,350.763,415.97,329.458,415.97z"/>
<polygon style="fill:#063D6B;" points="223.991,239.916 223.991,279.929 239.996,279.929 239.996,295.934 272.006,295.934 
	272.006,279.929 288.011,279.929 288.011,239.916 "/>
<path style="fill:#1D71B8;" d="M368.035,135.884H166.243c-29.982,0-54.287-24.305-54.287-54.287V7.845h201.793
	c29.982,0,54.287,24.305,54.287,54.287V135.884z"/>
<path style="fill:#063D6B;" d="M207.986,135.884h-45.065c-28.147,0-50.965-22.818-50.965-50.965V7.845h48.555
	c26.219,0,47.475,21.255,47.475,47.475V135.884z"/>
<g>
	<path style="fill:#1D1D1B;" d="M239.839,247.761H136.122v-55.702h103.717V247.761z M151.811,232.071h72.338v-24.323h-72.338
		V232.071z"/>
	<path style="fill:#1D1D1B;" d="M375.88,247.761H272.163v-55.702H375.88V247.761z M287.853,232.071h72.338v-24.323h-72.338V232.071z
		"/>
	<rect x="167.973" y="168.055" style="fill:#1D1D1B;" width="72.022" height="15.689"/>
	<rect x="272.004" y="168.055" style="fill:#1D1D1B;" width="72.022" height="15.689"/>
	<rect x="247.999" y="208.063" style="fill:#1D1D1B;" width="16.004" height="15.689"/>
	<polygon style="fill:#1D1D1B;" points="279.851,303.779 232.151,303.779 232.151,287.773 216.147,287.773 216.147,263.923 
		231.836,263.923 231.836,272.084 247.84,272.084 247.84,288.089 264.162,288.089 264.162,272.084 280.166,272.084 280.166,263.923 
		295.855,263.923 295.855,287.773 279.851,287.773 	"/>
	<rect x="136.123" y="151.885" style="fill:#1D1D1B;" width="15.689" height="32.01"/>
	<rect x="360.19" y="151.885" style="fill:#1D1D1B;" width="15.689" height="32.01"/>
	<path style="fill:#1D1D1B;" d="M384.041,247.761v-15.689c8.913,0,16.162-7.251,16.162-16.163c0-8.912-7.251-16.162-16.162-16.162
		v-15.689c17.564,0,31.852,14.289,31.852,31.852S401.604,247.761,384.041,247.761z"/>
	<path style="fill:#1D1D1B;" d="M127.961,247.761c-17.563,0-31.852-14.289-31.852-31.853s14.289-31.852,31.852-31.852v15.689
		c-8.913,0-16.162,7.251-16.162,16.162c0,8.913,7.251,16.163,16.162,16.163C127.961,232.071,127.961,247.761,127.961,247.761z"/>
	<rect x="215.993" y="328.098" style="fill:#1D1D1B;" width="80.027" height="15.689"/>
	<path style="fill:#1D1D1B;" d="M344.028,440.135h-16.163v-16.32h0.788c26.041,0,47.227-21.186,47.227-47.227V255.922h-15.689
		v120.667c0,17.39-14.148,31.538-31.538,31.538h-64.808v-32.168h-15.689v32.168h-64.807c-17.39,0-31.538-14.148-31.538-31.538
		V255.922h-15.689v120.667c0,26.041,21.186,47.227,47.227,47.227h0.788v16.32h-16.163c-39.626,0-71.864,32.239-71.864,71.865h15.689
		c0-30.975,25.199-56.176,56.175-56.176h22.586l57.597,21.599V512h15.689v-34.576l57.597-21.599h22.586
		c30.975,0,56.175,25.2,56.175,56.176h15.689C415.893,472.374,383.655,440.135,344.028,440.135z M312.176,440.135h-0.158v2.467
		L256,463.608l-56.017-21.006v-2.467h-0.158v-16.32h112.35V440.135z"/>
</g>
<rect x="272.004" y="496.154" style="fill:#FFFFFF;" width="16.005" height="15.689"/>
<path style="fill:#1D1D1B;" d="M375.88,143.729H165.884c-34.061,0-61.772-27.711-61.772-61.772V0H314.11
	c34.061,0,61.772,27.711,61.772,61.772v81.958H375.88z M119.801,15.689v66.268c0,25.41,20.672,46.082,46.082,46.082h194.308V61.772
	c0-25.41-20.672-46.082-46.082-46.082H119.801z"/>
</svg>